<svg style="position:absolute;width:0;height:0" version="1.1" xmlns="http://www.w3.org/2000/svg" overflow="hidden"><defs><symbol id="icon-search" viewBox="0 0 26 28"><path d="M18 13c0-3.859-3.141-7-7-7s-7 3.141-7 7 3.141 7 7 7 7-3.141 7-7zm8 13c0 1.094-.906 2-2 2a1.96 1.96 0 0 1-1.406-.594l-5.359-5.344a10.971 10.971 0 0 1-6.234 1.937c-6.078 0-11-4.922-11-11s4.922-11 11-11 11 4.922 11 11c0 2.219-.672 4.406-1.937 6.234l5.359 5.359c.359.359.578.875.578 1.406z"/></symbol><symbol id="icon-user" viewBox="0 0 20 28"><path d="M20 21.859C20 24.14 18.5 26 16.672 26H3.328C1.5 26 0 24.141 0 21.859 0 17.75 1.016 13 5.109 13a6.979 6.979 0 0 0 9.782 0C18.985 13 20 17.75 20 21.859zM16 8c0 3.313-2.688 6-6 6s-6-2.688-6-6 2.688-6 6-6 6 2.688 6 6z"/></symbol><symbol id="icon-close" viewBox="0 0 22 28"><path d="M20.281 20.656c0 .391-.156.781-.438 1.062l-2.125 2.125c-.281.281-.672.438-1.062.438s-.781-.156-1.062-.438L11 19.249l-4.594 4.594c-.281.281-.672.438-1.062.438s-.781-.156-1.062-.438l-2.125-2.125c-.281-.281-.438-.672-.438-1.062s.156-.781.438-1.062L6.751 15l-4.594-4.594c-.281-.281-.438-.672-.438-1.062s.156-.781.438-1.062l2.125-2.125c.281-.281.672-.438 1.062-.438s.781.156 1.062.438L11 10.751l4.594-4.594c.281-.281.672-.438 1.062-.438s.781.156 1.062.438l2.125 2.125c.281.281.438.672.438 1.062s-.156.781-.438 1.062L15.249 15l4.594 4.594c.281.281.438.672.438 1.062z"/></symbol><symbol id="icon-home" viewBox="0 0 26 28"><path d="M22 15.5V23c0 .547-.453 1-1 1h-6v-6h-4v6H5c-.547 0-1-.453-1-1v-7.5c0-.031.016-.063.016-.094L13 8l8.984 7.406c.016.031.016.063.016.094zm3.484-1.078l-.969 1.156a.52.52 0 0 1-.328.172h-.047a.49.49 0 0 1-.328-.109L12.999 6.625 2.186 15.641a.531.531 0 0 1-.375.109.52.52 0 0 1-.328-.172l-.969-1.156a.51.51 0 0 1 .063-.703L11.811 4.36c.656-.547 1.719-.547 2.375 0l3.813 3.187V4.5c0-.281.219-.5.5-.5h3c.281 0 .5.219.5.5v6.375l3.422 2.844c.203.172.234.5.063.703z"/></symbol><symbol id="icon-clock-o" viewBox="0 0 24 28"><path d="M14 8.5v7c0 .281-.219.5-.5.5h-5a.494.494 0 0 1-.5-.5v-1c0-.281.219-.5.5-.5H12V8.5c0-.281.219-.5.5-.5h1c.281 0 .5.219.5.5zm6.5 5.5c0-4.688-3.813-8.5-8.5-8.5S3.5 9.313 3.5 14s3.813 8.5 8.5 8.5 8.5-3.813 8.5-8.5zm3.5 0c0 6.625-5.375 12-12 12S0 20.625 0 14 5.375 2 12 2s12 5.375 12 12z"/></symbol><symbol id="icon-tags" viewBox="0 0 30 28"><path d="M7 7c0-1.109-.891-2-2-2s-2 .891-2 2 .891 2 2 2 2-.891 2-2zm16.672 9c0 .531-.219 1.047-.578 1.406l-7.672 7.688c-.375.359-.891.578-1.422.578s-1.047-.219-1.406-.578L1.422 13.906C.625 13.125 0 11.609 0 10.5V4c0-1.094.906-2 2-2h6.5c1.109 0 2.625.625 3.422 1.422l11.172 11.156c.359.375.578.891.578 1.422zm6 0c0 .531-.219 1.047-.578 1.406l-7.672 7.688a2.08 2.08 0 0 1-1.422.578c-.812 0-1.219-.375-1.75-.922l7.344-7.344c.359-.359.578-.875.578-1.406s-.219-1.047-.578-1.422L14.422 3.422C13.625 2.625 12.11 2 11 2h3.5c1.109 0 2.625.625 3.422 1.422l11.172 11.156c.359.375.578.891.578 1.422z"/></symbol><symbol id="icon-chevron-right" viewBox="0 0 19 28"><path d="M17.297 13.703L5.703 25.297a.99.99 0 0 1-1.406 0l-2.594-2.594a.99.99 0 0 1 0-1.406L10 13 1.703 4.703a.99.99 0 0 1 0-1.406L4.297.703a.99.99 0 0 1 1.406 0l11.594 11.594a.99.99 0 0 1 0 1.406z"/></symbol><symbol id="icon-arrow-right" viewBox="0 0 23 28"><path d="M23 15a2.01 2.01 0 0 1-.578 1.422L12.25 26.594c-.375.359-.891.578-1.422.578s-1.031-.219-1.406-.578L8.25 25.422c-.375-.375-.594-.891-.594-1.422s.219-1.047.594-1.422L12.828 18h-11C.703 18 0 17.062 0 16v-2c0-1.062.703-2 1.828-2h11L8.25 7.406a1.96 1.96 0 0 1 0-2.812l1.172-1.172c.375-.375.875-.594 1.406-.594s1.047.219 1.422.594l10.172 10.172c.375.359.578.875.578 1.406z"/></symbol><symbol id="icon-calendar" viewBox="0 0 26 28"><path d="M2 26h4.5v-4.5H2V26zm5.5 0h5v-4.5h-5V26zM2 20.5h4.5v-5H2v5zm5.5 0h5v-5h-5v5zm-5.5-6h4.5V10H2v4.5zM13.5 26h5v-4.5h-5V26zm-6-11.5h5V10h-5v4.5zm12 11.5H24v-4.5h-4.5V26zm-6-5.5h5v-5h-5v5zM8 7V2.5c0-.266-.234-.5-.5-.5h-1c-.266 0-.5.234-.5.5V7c0 .266.234.5.5.5h1c.266 0 .5-.234.5-.5zm11.5 13.5H24v-5h-4.5v5zm-6-6h5V10h-5v4.5zm6 0H24V10h-4.5v4.5zM20 7V2.5c0-.266-.234-.5-.5-.5h-1c-.266 0-.5.234-.5.5V7c0 .266.234.5.5.5h1c.266 0 .5-.234.5-.5zm6-1v20c0 1.094-.906 2-2 2H2c-1.094 0-2-.906-2-2V6c0-1.094.906-2 2-2h2V2.5C4 1.125 5.125 0 6.5 0h1C8.875 0 10 1.125 10 2.5V4h6V2.5C16 1.125 17.125 0 18.5 0h1C20.875 0 22 1.125 22 2.5V4h2c1.094 0 2 .906 2 2z"/></symbol><symbol id="icon-comment" viewBox="0 0 28 28"><path d="M28 14c0 5.531-6.266 10-14 10-.766 0-1.531-.047-2.266-.125-2.047 1.813-4.484 3.094-7.187 3.781-.562.156-1.172.266-1.781.344-.344.031-.672-.219-.75-.594v-.016c-.078-.391.187-.625.422-.906.984-1.109 2.109-2.047 2.844-4.656C2.063 20 .001 17.172.001 14c0-5.516 6.266-10 14-10s14 4.469 14 10z"/></symbol><symbol id="icon-shopping-cart" viewBox="0 0 26 28"><path d="M10 24c0 1.094-.906 2-2 2s-2-.906-2-2 .906-2 2-2 2 .906 2 2zm14 0c0 1.094-.906 2-2 2s-2-.906-2-2 .906-2 2-2 2 .906 2 2zm2-17v8c0 .5-.391.938-.891 1L8.797 17.906c.078.359.203.719.203 1.094 0 .359-.219.688-.375 1H23c.547 0 1 .453 1 1s-.453 1-1 1H7c-.547 0-1-.453-1-1 0-.484.703-1.656.953-2.141L4.187 6H1c-.547 0-1-.453-1-1s.453-1 1-1h4c1.047 0 1.078 1.25 1.234 2H25c.547 0 1 .453 1 1z"/></symbol><symbol id="icon-comments" viewBox="0 0 28 28"><path d="M22 12c0 4.422-4.922 8-11 8-.953 0-1.875-.094-2.75-.25a13.114 13.114 0 0 1-4.344 2 11.58 11.58 0 0 1-1.344.25h-.047c-.234 0-.453-.187-.5-.453-.063-.297.141-.484.313-.688.609-.688 1.297-1.297 1.828-2.594C1.625 16.796 0 14.531 0 11.999c0-4.422 4.922-8 11-8s11 3.578 11 8zm6 4c0 2.547-1.625 4.797-4.156 6.266.531 1.297 1.219 1.906 1.828 2.594.172.203.375.391.313.688-.063.281-.297.484-.547.453a11.58 11.58 0 0 1-1.344-.25 13.114 13.114 0 0 1-4.344-2c-.875.156-1.797.25-2.75.25-2.828 0-5.422-.781-7.375-2.063a20.4 20.4 0 0 0 1.375.063c3.359 0 6.531-.969 8.953-2.719C22.562 17.376 24 14.798 24 12.001c0-.812-.125-1.609-.359-2.375C26.282 11.079 28 13.392 28 16.001z"/></symbol><symbol id="icon-thumb-tack" viewBox="0 0 18 28"><path d="M7.5 13.5v-7c0-.281-.219-.5-.5-.5s-.5.219-.5.5v7c0 .281.219.5.5.5s.5-.219.5-.5zM18 19c0 .547-.453 1-1 1h-6.703L9.5 27.547c-.031.25-.234.453-.484.453H9a.504.504 0 0 1-.5-.422L7.312 20H1c-.547 0-1-.453-1-1 0-2.562 1.937-5 4-5V6c-1.094 0-2-.906-2-2s.906-2 2-2h10c1.094 0 2 .906 2 2s-.906 2-2 2v8c2.063 0 4 2.438 4 5z"/></symbol><symbol id="icon-phone" viewBox="0 0 22 28"><path d="M22 19.375c0 .562-.25 1.656-.484 2.172-.328.766-1.203 1.266-1.906 1.656-.922.5-1.859.797-2.906.797-1.453 0-2.766-.594-4.094-1.078a14.627 14.627 0 0 1-2.734-1.297c-2.656-1.641-5.859-4.844-7.5-7.5a14.627 14.627 0 0 1-1.297-2.734C.595 10.063.001 8.75.001 7.297c0-1.047.297-1.984.797-2.906.391-.703.891-1.578 1.656-1.906.516-.234 1.609-.484 2.172-.484.109 0 .219 0 .328.047.328.109.672.875.828 1.188.5.891.984 1.797 1.5 2.672.25.406.719.906.719 1.391 0 .953-2.828 2.344-2.828 3.187 0 .422.391.969.609 1.344 1.578 2.844 3.547 4.813 6.391 6.391.375.219.922.609 1.344.609.844 0 2.234-2.828 3.187-2.828.484 0 .984.469 1.391.719.875.516 1.781 1 2.672 1.5.313.156 1.078.5 1.188.828.047.109.047.219.047.328z"/></symbol><symbol id="icon-bars" viewBox="0 0 24 28"><path d="M24 21v2c0 .547-.453 1-1 1H1c-.547 0-1-.453-1-1v-2c0-.547.453-1 1-1h22c.547 0 1 .453 1 1zm0-8v2c0 .547-.453 1-1 1H1c-.547 0-1-.453-1-1v-2c0-.547.453-1 1-1h22c.547 0 1 .453 1 1zm0-8v2c0 .547-.453 1-1 1H1c-.547 0-1-.453-1-1V5c0-.547.453-1 1-1h22c.547 0 1 .453 1 1z"/></symbol><symbol id="icon-list-ul" viewBox="0 0 28 28"><path d="M6 22a3.001 3.001 0 0 1-6 0 3.001 3.001 0 0 1 6 0zm0-8a3.001 3.001 0 0 1-6 0 3.001 3.001 0 0 1 6 0zm22 6.5v3c0 .266-.234.5-.5.5h-19a.514.514 0 0 1-.5-.5v-3c0-.266.234-.5.5-.5h19c.266 0 .5.234.5.5zM6 6a3.001 3.001 0 0 1-6 0 3.001 3.001 0 0 1 6 0zm22 6.5v3c0 .266-.234.5-.5.5h-19a.514.514 0 0 1-.5-.5v-3c0-.266.234-.5.5-.5h19c.266 0 .5.234.5.5zm0-8v3c0 .266-.234.5-.5.5h-19a.514.514 0 0 1-.5-.5v-3c0-.266.234-.5.5-.5h19c.266 0 .5.234.5.5z"/></symbol><symbol id="icon-caret-down" viewBox="0 0 16 28"><path d="M16 11a.99.99 0 0 1-.297.703l-7 7C8.516 18.89 8.265 19 8 19s-.516-.109-.703-.297l-7-7A.996.996 0 0 1 0 11c0-.547.453-1 1-1h14c.547 0 1 .453 1 1z"/></symbol><symbol id="icon-envelope" viewBox="0 0 28 28"><path d="M28 11.094V23.5c0 1.375-1.125 2.5-2.5 2.5h-23A2.507 2.507 0 0 1 0 23.5V11.094c.469.516 1 .969 1.578 1.359 2.594 1.766 5.219 3.531 7.766 5.391 1.313.969 2.938 2.156 4.641 2.156h.031c1.703 0 3.328-1.188 4.641-2.156 2.547-1.844 5.172-3.625 7.781-5.391a9.278 9.278 0 0 0 1.563-1.359zM28 6.5c0 1.75-1.297 3.328-2.672 4.281-2.438 1.687-4.891 3.375-7.313 5.078-1.016.703-2.734 2.141-4 2.141h-.031c-1.266 0-2.984-1.437-4-2.141-2.422-1.703-4.875-3.391-7.297-5.078-1.109-.75-2.688-2.516-2.688-3.938 0-1.531.828-2.844 2.5-2.844h23c1.359 0 2.5 1.125 2.5 2.5z"/></symbol><symbol id="icon-angle-double-right" viewBox="0 0 15 28"><path d="M9.297 15a.54.54 0 0 1-.156.359L1.86 22.64c-.094.094-.234.156-.359.156s-.266-.063-.359-.156l-.781-.781c-.094-.094-.156-.234-.156-.359s.063-.266.156-.359L6.502 15 .361 8.859C.267 8.765.205 8.625.205 8.5s.063-.266.156-.359l.781-.781c.094-.094.234-.156.359-.156s.266.063.359.156l7.281 7.281a.536.536 0 0 1 .156.359zm6 0a.54.54 0 0 1-.156.359L7.86 22.64c-.094.094-.234.156-.359.156s-.266-.063-.359-.156l-.781-.781c-.094-.094-.156-.234-.156-.359s.063-.266.156-.359L12.502 15 6.361 8.859c-.094-.094-.156-.234-.156-.359s.063-.266.156-.359l.781-.781c.094-.094.234-.156.359-.156s.266.063.359.156l7.281 7.281a.536.536 0 0 1 .156.359z"/></symbol><symbol id="icon-angle-right" viewBox="0 0 9 28"><path d="M9.297 15a.54.54 0 0 1-.156.359L1.86 22.64c-.094.094-.234.156-.359.156s-.266-.063-.359-.156l-.781-.781a.508.508 0 0 1-.156-.359.54.54 0 0 1 .156-.359L6.502 15 .361 8.859C.267 8.765.205 8.625.205 8.5s.063-.266.156-.359l.781-.781c.094-.094.234-.156.359-.156s.266.063.359.156l7.281 7.281a.536.536 0 0 1 .156.359z"/></symbol><symbol id="icon-quote-left" viewBox="0 0 26 28"><path d="M12 15v6c0 1.656-1.344 3-3 3H3c-1.656 0-3-1.344-3-3V10c0-4.406 3.594-8 8-8h1c.547 0 1 .453 1 1v2c0 .547-.453 1-1 1H8c-2.203 0-4 1.797-4 4v.5A1.5 1.5 0 0 0 5.5 12H9c1.656 0 3 1.344 3 3zm14 0v6c0 1.656-1.344 3-3 3h-6c-1.656 0-3-1.344-3-3V10c0-4.406 3.594-8 8-8h1c.547 0 1 .453 1 1v2c0 .547-.453 1-1 1h-1c-2.203 0-4 1.797-4 4v.5a1.5 1.5 0 0 0 1.5 1.5H23c1.656 0 3 1.344 3 3z"/></symbol><symbol id="icon-mail-reply" viewBox="0 0 28 28"><path d="M28 17.5c0 2.188-1.094 5.047-1.984 7.047-.172.359-.344.859-.578 1.188-.109.156-.219.266-.438.266-.313 0-.5-.25-.5-.547 0-.25.063-.531.078-.781.047-.641.078-1.281.078-1.922 0-7.453-4.422-8.75-11.156-8.75H10v4c0 .547-.453 1-1 1a.99.99 0 0 1-.703-.297l-8-8C.11 10.517 0 10.266 0 10.001s.109-.516.297-.703l8-8A.996.996 0 0 1 9 1.001c.547 0 1 .453 1 1v4h3.5c5.125 0 11.5.906 13.672 6.297.656 1.656.828 3.453.828 5.203z"/></symbol><symbol id="icon-chevron-circle-right" viewBox="0 0 24 28"><path d="M11.203 21.797l7.094-7.094a.99.99 0 0 0 0-1.406l-7.094-7.094a.99.99 0 0 0-1.406 0L8.203 7.797a.99.99 0 0 0 0 1.406L13 14l-4.797 4.797a.99.99 0 0 0 0 1.406l1.594 1.594a.99.99 0 0 0 1.406 0zM24 14c0 6.625-5.375 12-12 12S0 20.625 0 14 5.375 2 12 2s12 5.375 12 12z"/></symbol><symbol id="icon-long-arrow-right" viewBox="0 0 27 28"><path d="M27 13.953a.549.549 0 0 1-.156.375l-6 5.531A.5.5 0 1 1 20 19.5V16H.5a.494.494 0 0 1-.5-.5v-3c0-.281.219-.5.5-.5H20V8.5c0-.203.109-.375.297-.453s.391-.047.547.078l6 5.469a.508.508 0 0 1 .156.359z"/></symbol><symbol id="icon-arrow-circle-o-right" viewBox="0 0 24 28"><path d="M18 14a.518.518 0 0 1-.141.359l-5 5a.52.52 0 0 1-.359.141.514.514 0 0 1-.5-.5v-3H6.5a.514.514 0 0 1-.5-.5v-3c0-.266.234-.5.5-.5H12V9c0-.281.219-.5.5-.5.141 0 .266.063.375.156l4.984 4.984a.52.52 0 0 1 .141.359zm2.5 0c0-4.688-3.813-8.5-8.5-8.5S3.5 9.313 3.5 14s3.813 8.5 8.5 8.5 8.5-3.813 8.5-8.5zm3.5 0c0 6.625-5.375 12-12 12S0 20.625 0 14 5.375 2 12 2s12 5.375 12 12z"/></symbol><symbol id="icon-cart-plus" viewBox="0 0 26 28"><path d="M19 11c0-.547-.453-1-1-1h-2V8c0-.547-.453-1-1-1s-1 .453-1 1v2h-2c-.547 0-1 .453-1 1s.453 1 1 1h2v2c0 .547.453 1 1 1s1-.453 1-1v-2h2c.547 0 1-.453 1-1zm-9 13c0 1.109-.891 2-2 2s-2-.891-2-2 .891-2 2-2 2 .891 2 2zm14 0c0 1.109-.891 2-2 2s-2-.891-2-2 .891-2 2-2 2 .891 2 2zm2-17v8c0 .5-.375.938-.891 1L8.797 17.906C8.86 18.25 9 18.64 9 19s-.219.688-.375 1H23c.547 0 1 .453 1 1s-.453 1-1 1H7c-.547 0-1-.453-1-1 0-.484.734-1.687.953-2.141L4.187 6H1c-.547 0-1-.453-1-1s.453-1 1-1h4c1.062 0 1.078 1.25 1.234 2H25c.547 0 1 .453 1 1z"/></symbol><symbol id="icon-cart-arrow-down" viewBox="0 0 26 28"><path d="M20 11c0-.547-.453-1-1-1a.99.99 0 0 0-.703.297L16 12.578V8c0-.547-.453-1-1-1s-1 .453-1 1v4.578l-2.297-2.281A.996.996 0 0 0 11 10c-.547 0-1 .453-1 1a.99.99 0 0 0 .297.703l4 4c.187.187.438.297.703.297s.516-.109.703-.297l4-4A.996.996 0 0 0 20 11zM10 24c0 1.109-.891 2-2 2s-2-.891-2-2 .891-2 2-2 2 .891 2 2zm14 0c0 1.109-.891 2-2 2s-2-.891-2-2 .891-2 2-2 2 .891 2 2zm2-17v8c0 .5-.375.938-.891 1L8.797 17.906C8.86 18.25 9 18.64 9 19s-.219.688-.375 1H23c.547 0 1 .453 1 1s-.453 1-1 1H7c-.547 0-1-.453-1-1 0-.484.734-1.687.953-2.141L4.187 6H1c-.547 0-1-.453-1-1s.453-1 1-1h4c1.062 0 1.078 1.25 1.234 2H25c.547 0 1 .453 1 1z"/></symbol><symbol id="icon-shopping-basket" viewBox="0 0 32 28"><path d="M30 12c1.109 0 2 .891 2 2s-.891 2-2 2h-.234l-1.797 10.344c-.172.953-1 1.656-1.969 1.656H6a2.009 2.009 0 0 1-1.969-1.656L2.234 16H2c-1.109 0-2-.891-2-2s.891-2 2-2h28zM7.578 24.5a1.01 1.01 0 0 0 .922-1.078l-.5-6.5c-.047-.547-.531-.969-1.078-.922s-.969.531-.922 1.078l.5 6.5c.047.516.484.922 1 .922h.078zm6.422-1V17c0-.547-.453-1-1-1s-1 .453-1 1v6.5c0 .547.453 1 1 1s1-.453 1-1zm6 0V17c0-.547-.453-1-1-1s-1 .453-1 1v6.5c0 .547.453 1 1 1s1-.453 1-1zm5.5.078l.5-6.5c.047-.547-.375-1.031-.922-1.078s-1.031.375-1.078.922l-.5 6.5a1.01 1.01 0 0 0 .922 1.078h.078c.516 0 .953-.406 1-.922zM7.438 4.562L5.985 11H3.922L5.5 4.109A3.966 3.966 0 0 1 9.391 1H12c0-.547.453-1 1-1h6c.547 0 1 .453 1 1h2.609A3.966 3.966 0 0 1 26.5 4.109L28.078 11h-2.063l-1.453-6.438a2.004 2.004 0 0 0-1.953-1.563H20c0 .547-.453 1-1 1h-6c-.547 0-1-.453-1-1H9.391c-.938 0-1.734.641-1.953 1.563z"/></symbol></defs></svg>